<svg xmlns="http://www.w3.org/2000/svg" width="16" height="20.205" viewBox="0 0 16 20.205"><defs><style>.a{fill:#ebeff2;}</style></defs><g transform="translate(1347.146 164.473)"><g transform="translate(-1347.146 -164.473)"><g transform="translate(0 0)"><path class="a" d="M-650.149-120.126a6.612,6.612,0,0,1,4.706,1.95,6.612,6.612,0,0,1,1.95,4.7,6.606,6.606,0,0,1-1.933,4.689l0,0-.02.02-.034.034-.032.037-4.631,5.36-4.637-5.369-.032-.037-.035-.035a6.613,6.613,0,0,1-1.949-4.7,6.607,6.607,0,0,1,1.948-4.7,6.6,6.6,0,0,1,4.7-1.948m0-1.347a7.97,7.97,0,0,0-5.654,2.342,8,8,0,0,0,0,11.314l5.656,6.549,5.651-6.54.007-.007a8,8,0,0,0,0-11.314,7.978,7.978,0,0,0-5.658-2.344Z" transform="translate(658.146 121.473)"/><path class="a" d="M-631.53-97.858a3,3,0,0,0-3,3,3,3,0,0,0,3,3,3,3,0,0,0,3-3A3,3,0,0,0-631.53-97.858Z" transform="translate(639.53 102.858)"/></g></g></g></svg>